<svg id="Layer_1" data-name="Layer 1" xmlns="http://www.w3.org/2000/svg" viewBox="0 0 512 512"><title>android-chrome-512x512</title><rect x="-0.04" width="512" height="512" style="fill:#1f497d"/><path d="M396.56,27.4V224.86H191.29V27.4h-64.2V328.59h0a78.25,78.25,0,0,0,16.6,44.83,94.15,94.15,0,0,0,46.44,33.92V288.75H396.56v11.61c0,9.64,0,18.94-.58,28.81h0A159.56,159.56,0,0,1,354.42,435.8a185.8,185.8,0,0,1-67.57,49.25h6.38A165.64,165.64,0,0,0,418,433.24,162.64,162.64,0,0,0,460,317.79V27.4Z" style="fill:#fff"/><path d="M321.44,300.94c0,23.23,1.28,46.46-16.83,75.62a104.49,104.49,0,0,1-172.42,0c-17.3-27.53-16.83-52.62-16.83-76.43V27.4H52V317.79a163.46,163.46,0,0,0,41.68,115,164.82,164.82,0,0,0,124.81,51.8,165.41,165.41,0,0,0,124.7-51.8,162.71,162.71,0,0,0,41.68-115V300.94Z" style="fill:#fff"/><rect x="321.44" y="27.4" width="63.74" height="186.42" style="fill:#fff"/></svg>